<svg xmlns="http://www.w3.org/2000/svg" width="1800" height="559" fill="none">
    <path fill="#DDD" fill-rule="evenodd"
        d="M1302.14 181.043c60.85 6.127 101.67 45.139 112.53 107.553 2.63 15.129 2.37 50.919-.48 66.582-3.78 20.731-10.83 39.28-20.64 54.322-6.2 9.504-23.67 26.281-33.55 32.212-17.15 10.299-35.82 16.181-58.28 18.365-74.33 7.225-130.31-32.627-143.83-102.394-4.04-20.842-4.23-51.713-.44-73.419 7.23-41.521 29.11-72.937 62.47-89.724 22.63-11.392 53.24-16.416 82.22-13.497Zm341.27-.028c5.44.53 10.09 1.155 10.33 1.389.23.234-.82 15.768-2.34 34.52l-2.75 34.095-6.58-.759c-12.82-1.482-29.78-.589-40.35 2.126-25.25 6.489-40.47 20.651-47.4 44.114-1.61 5.472-1.8 12.76-2.08 82.75l-.31 76.75H1478V185h27.93c25.74 0 27.98.137 28.45 1.75.28.963 2.58 10.525 5.11 21.25 2.53 10.725 4.83 20.287 5.12 21.25 1.01 3.374 3.88 1.741 7.89-4.48 5.6-8.692 20.12-23.58 28.47-29.181 11.65-7.817 23.76-12.611 36.57-14.477 8.23-1.198 14.31-1.221 25.87-.097Zm-373.64 60.54c-21.84 5.294-34.25 22.905-38.7 54.912-1.55 11.118-1.31 38.329.43 50.033 2.94 19.723 8.15 32.061 17.5 41.49 9.35 9.422 20.63 13.453 37.5 13.393 16.52-.058 27.61-4.419 36.99-14.542 12.23-13.212 17.5-33.336 17.5-66.841 0-48.067-12.21-71.888-40.22-78.492-7.76-1.829-23.36-1.805-31 .047Z"
        clip-rule="evenodd" />
    <path fill="#DDD"
        d="m1086.77 282.25-.27 180.25-2.28 10.708c-4.55 21.407-10.58 35.515-21.21 49.613-3.35 4.457-8.51 10.161-11.45 12.676-13.37 11.42-33.29 19.983-53.776 23.12H931v-61.652h33.201c26.218.094 38.439-8.781 45.399-32.965 1.79-6.224 1.89-14.051 2.16-184.25l.28-177.75h75l-.27 180.25ZM1723.74 497.117V61.652h-70V0h146v558.617h-146v-61.5h70Z" />
    <path fill="#DDD"
        d="M1723.74 497.117V61.652h-70V0h146v558.617h-146v-61.5h70ZM76 61.5v435.465h70v61.652H0V0h146v61.5H76Z" />
    <path fill="#5DA994" fill-rule="evenodd"
        d="M841.5 182.492c53.299 9.411 88.668 44.601 100.517 100.008 2.702 12.635 3.853 47.006 2.078 62.053-6.631 56.232-34.235 93.232-81.222 108.873-40.067 13.337-88.831 8.671-121.693-11.645-10.644-6.58-28.254-23.593-34.45-33.281-16.226-25.372-23.73-53.2-23.73-88 0-72.557 32.391-120.52 91.532-135.535 6.067-1.541 15.292-3.258 20.5-3.816 12.331-1.323 35.096-.665 46.468 1.343Zm-64.496 70.599c5.512-5.511 14.85-10.456 22.506-11.916 2.745-.523 9.283-1.002 14.53-1.063 39.698-.466 58.034 28.528 55.582 87.888-1.936 46.871-15.877 68.715-46.622 73.051-4.125.582-10.65.756-14.5.387-32.686-3.132-47.896-25.42-50.115-73.438-1.537-33.259 5.572-61.862 18.619-74.909ZM349 115.067c-14.968-5.726-37.763-10.15-61.95-12.025-7.397-.573-42.16-1.042-77.25-1.042H146v354.12l79.25-.401c75.598-.383 79.762-.499 90.353-2.517 21.256-4.05 41.233-11.937 54.897-21.675 8.37-5.965 20.451-18.911 25.364-27.182 8.56-14.408 13.124-32.613 13.124-52.345 0-36.002-13.004-60.209-39.163-72.9-5.679-2.756-13.363-5.76-17.075-6.677-7.863-1.941-8.732-3.833-2.5-5.445 32.77-8.477 51.515-39.345 49.442-81.419-1.155-23.443-6.944-37.923-20.636-51.617-8.728-8.729-16.823-13.813-30.056-18.875ZM221 348.008v46.169l34.75-.427c32.153-.396 35.299-.592 42.102-2.621 16.47-4.912 24.486-11.983 30.19-26.629 1.986-5.099 2.337-7.802 2.337-18 0-10.072-.361-12.916-2.243-17.702-4.529-11.51-14.949-19.625-30.822-24.002-7.13-1.966-10.813-2.19-42.064-2.555L221 301.84v46.168Zm0-144.841c0-21.359.338-39.186.75-39.616.412-.43 13.35-.548 28.75-.263 36.232.671 48.745 2.861 59.837 10.472 15.838 10.867 17.041 40.993 2.228 55.805C302.457 239.674 290.727 242 249.869 242H221v-38.833Z"
        clip-rule="evenodd" />
    <path fill="#5DA994"
        d="M649.696 182.363c-.211-.212-4.842-.818-10.29-1.348-5.448-.53-12.156-.92-14.906-.867-13.889.267-28.787 4.426-41.467 11.577-10.549 5.949-26.442 20.957-33.533 31.665-2.937 4.436-5.706 7.563-6.711 7.58-1.944.034-1.703.805-8.325-26.72l-4.63-19.25H474v271H547.919l.302-77.25.301-77.25 2.352-7c5.548-16.515 13.172-26.273 26.814-34.316 14.606-8.612 37.362-12.695 57.192-10.262 5.16.633 9.482 1.022 9.605.864.447-.569 5.586-68.048 5.211-68.423Z" />
</svg>